<svg xmlns="http://www.w3.org/2000/svg" viewBox="0 0 304.7 233.08"><defs><style>.cls-1{fill:#fff;}.cls-2{fill:#231815;}</style></defs><g id="图层_2" data-name="图层 2"><g id="图层_1-2" data-name="图层 1"><path class="cls-1" d="M214,220.73c-11.68-13.48-18.36-27-19.9-40.24l-.72-6.19-4.91,3.84c-9.72,7.59-20,11.44-30.63,11.44h0a52.41,52.41,0,0,1-18.18-3.47l-1.48-.55-1.39.74c-13.13,7-24.82,10.59-34.77,10.59-16.37,0-28.42-9.46-36.83-28.91l-1.51-3.51-3.37,1.81c-8.09,4.38-14.78,6.6-19.89,6.6a10.65,10.65,0,0,1-8.17-3.16c-4-4.26-5.71-12.88-5-25.65l.13-2.25-2-1C9.09,132.25.8,116.78,4.23,101.39,8,84.31,23.78,77.58,37.24,77l2.56-.11.66-2.48C47.74,47,60.76,33.72,80.27,33.72a62.86,62.86,0,0,1,21.15,4.22l2.49.9,1.55-2.15c16-22.33,32.92-33.19,51.59-33.19,13.92,0,29.18,6.31,45.38,18.75l1.62,1.25,1.87-.8c11.32-4.78,21.42-7.21,30-7.21,21.87,0,35.09,15.59,40.43,47.65l.29,1.74,1.58.81C287,70.14,293.71,76.51,297.6,84.1a30.16,30.16,0,0,1,2.89,20.61c-2.66,11.12-11.82,17.76-24.51,17.76a43,43,0,0,1-8.24-.84l-4.14-.81,0,4.22c-.36,43.22-21.45,48.76-39.78,48.76-.9,0-1.81,0-2.73-.05l-2.28-.07-1,2.06C211.61,188.63,210.34,203.44,214,220.73Z"/><path class="cls-2" d="M157.05,7c13.13,0,27.68,6.07,43.25,18l3.23,2.48,3.76-1.58c10.88-4.6,20.52-6.94,28.64-6.94,9.92,0,17.66,3.44,23.67,10.51,6.28,7.4,10.76,18.91,13.3,34.21l.59,3.5,3.15,1.6c8.13,4.11,14.3,10,17.84,16.88a26.62,26.62,0,0,1,2.6,18.21C294.83,113.34,286.94,119,276,119a40,40,0,0,1-7.57-.77l-8.28-1.62-.06,8.43c-.15,17.26-3.67,29.59-10.48,36.65-5.61,5.81-14.05,8.64-25.8,8.64-.85,0-1.73,0-2.61,0l-4.57-.15-2,4.12c-4.85,10.12-6.84,21.32-6,33.82-6.31-9.43-10-18.78-11.09-28l-1.44-12.38-9.82,7.67c-9.23,7.2-18.54,10.7-28.48,10.7a48.78,48.78,0,0,1-17-3.25l-3-1.1-2.78,1.49C122.5,190,111.36,193.39,102,193.39c-14.83,0-25.82-8.77-33.62-26.8l-3-7-6.72,3.64c-9.43,5.1-15.12,6.17-18.23,6.17s-4.72-1.11-5.63-2.07c-1.88-2-4.9-7.62-4.05-23.05l.25-4.49-4-2.09c-7.7-4-13.54-9.77-16.88-16.56a28.93,28.93,0,0,1-2.45-19A25.86,25.86,0,0,1,16.78,87.5c5.28-4.23,12.4-6.66,20.61-7l5.13-.23,1.32-5c3.5-13.15,8.46-23,14.73-29.3,5.89-5.91,13-8.78,21.7-8.77a59.49,59.49,0,0,1,20,4l5,1.81,3.09-4.31C123.64,17.38,139.59,7,157.05,7m0-7c-19,0-37.18,10.63-54.43,34.65a65.9,65.9,0,0,0-22.35-4.43q-31.72,0-43.19,43.27c-42.68,1.9-50.37,51-13.35,70.39-1.17,21.26,4.12,32.5,16.67,32.5,5.68,0,12.84-2.3,21.56-7,9,20.74,22.33,31,40,31q15.89,0,36.42-11a55.63,55.63,0,0,0,19.4,3.69c11.31,0,22.25-4,32.79-12.19q3,26.1,30.34,52.19c-6.76-20.6-7.81-39.53,0-55.83,1,0,1.9.05,2.84.05,24.87,0,42.94-11.34,43.28-52.23a47,47,0,0,0,8.91.9c34.73,0,40.28-44.93,3.83-63.41C274.34,29.74,260.23,12,235.93,12c-9,0-19.45,2.45-31.37,7.49C188.3,7,172.42,0,157.05,0Z"/></g></g></svg>