<svg xmlns="http://www.w3.org/2000/svg" viewBox="0 0 187.64 206.28"><defs><style>.cls-1{fill:#f4da25;}</style></defs><g id="图层_2" data-name="图层 2"><g id="图层_1-2" data-name="图层 1"><path class="cls-1" d="M104.72,27.39C121.93,6.9,136.13-10.85,153.17,8c3.85,9.92,2.16,19.57-3.75,29,3.84.6,10.49,11.71,8,8s30.49-7.54,29.93,15l.33,12.37A8.45,8.45,0,0,1,179.2,81h-2.65l-3.72,110.67a15.16,15.16,0,0,1-15.16,14.66H35.22a18,18,0,0,1-18-17.19L12.39,80.48H7.83a7.71,7.71,0,0,1-7.7-7.31C-.94,52,4.37,37.34,30.17,44c4.21-4.75,7-6.51,8.88-6.55C22.68-9.78,60.1-8.85,86.29,26.23,89.27,22.58,102.11,22.77,104.72,27.39Z"/></g></g></svg>