<svg xmlns="http://www.w3.org/2000/svg" viewBox="0 0 252.54 224.11"><defs><style>.cls-1{fill:#18863b;}</style></defs><g id="图层_2" data-name="图层 2"><g id="图层_1-2" data-name="图层 1"><path class="cls-1" d="M41.27,147.69l10.32,24.5.48,1.8A66,66,0,0,0,71.7,205.86h0a69.69,69.69,0,0,0,34.15,16.69h0a99.44,99.44,0,0,0,37.55-.46l11.1-2.27a60.33,60.33,0,0,0,36.35-23.19l9.62-13A51.32,51.32,0,0,0,207.34,171l3.6-9.64a32.62,32.62,0,0,1,15.76-17.68l11.46-5.84,8-5.64a14.94,14.94,0,0,0,3.68-20.76h0a17.62,17.62,0,0,0-14.47-7.56h-.91a34,34,0,0,0-15.78,3.88s-7.89,7.85-15.08,7.3c-2.29-.17-12.19-3.44-14.41-15.25-4.95-26.33-1.51-73.92-1.51-73.92A20.13,20.13,0,0,0,180.36,10h0a16.4,16.4,0,0,0-19.31-1.07h0A17.83,17.83,0,0,0,153.6,19.1a17.52,17.52,0,0,0-.57,4.45c-.1,7.14-.6,38.21-2.08,54.3-.6,6.54-7.56-9.78-8.59-13.15l-15.9-52.59c-5.13-9.82-10.29-10.67-10.29-10.67a11,11,0,0,0-13.35,1.9h0c-5.77,5.94-6.12,16.09-5.27,24.33,0,0,10.26,59.83,3.22,60.37-3.49.27-25.24-51.76-25.24-51.76a28.64,28.64,0,0,0-6.65-8.86l-2-1.84a13.79,13.79,0,0,0-19.69,1.31h0a17.49,17.49,0,0,0-3.65,15.64l22.13,69.53c1.87,7.11-3.76,7.13-6.44,5.5L41.27,100.83,27.85,90a19.52,19.52,0,0,0-15.4-4.08h0A14.84,14.84,0,0,0,0,100.55H0a20.36,20.36,0,0,0,6.51,14.92Z"/></g></g></svg>