<svg xmlns="http://www.w3.org/2000/svg" viewBox="0 0 290.1 227.21"><defs><style>.cls-1{fill:#2454a5;}</style></defs><g id="图层_2" data-name="图层 2"><g id="图层_1-2" data-name="图层 1"><path class="cls-1" d="M148.17,54.87C101.87-42.14-19.91.7,2.79,96.23,18.38,74.79,37.38,60.35,65.06,58.62,86.62,57.27,77.68,78.54,70,82c61.15-25.89,65.27,36.62,65.66,40,3.08,26.35,1.53,36.42-24.12,43.21a441.43,441.43,0,0,1-59.16,11.42l95.84,50.57,81.66-51.6-27-6.54c-30.36-7.36-50.27-37.13-44.37-67.81,3.38-17.52,14.14-29,40.39-25.75-10.6-19.87,1.67-27,47.9-15.07A62.37,62.37,0,0,1,272.88,74c9.16,8.16,13.76,17.32,14.75,27.28C310.33-18.41,170-26.66,148.17,54.87Z"/></g></g></svg>