<?xml version="1.0" encoding="utf-8"?>

<!DOCTYPE svg PUBLIC "-//W3C//DTD SVG 1.1//EN" "http://www.w3.org/Graphics/SVG/1.1/DTD/svg11.dtd">
<svg version="1.1" id="Layer_1" xmlns="http://www.w3.org/2000/svg" xmlns:xlink="http://www.w3.org/1999/xlink" x="0px" y="0px"
	 viewBox="0 0 1656.511 1657.314" enable-background="new 0 0 1656.511 1657.314" xml:space="preserve">
<path fill="#202020" d="M1601.53,908.85c-3.662-3.809-7.13-7.724-10.349-11.764c-1.757-2.2-3.393-4.435-4.874-6.705
	c1.804-2.024,3.755-3.989,5.821-5.902c3.786-3.513,7.801-6.867,11.991-10.085c4.171-3.22,8.437-6.311,12.521-9.302
	c4.042-2.993,7.848-5.888,11.228-8.699c-7.336-0.612-14.528-3.258-21.627-6.045c-7.103-2.794-14.094-5.729-21.063-7.11
	c0,0,0.049-4.427,0.134-12.174c0.021-1.937,0.044-4.081,0.069-6.415c-0.031-2.334-0.065-4.859-0.102-7.557
	c-0.096-5.395-0.091-11.484-0.42-18.118c-0.917-26.538-3.734-61.921-9.698-96.851c-0.506-3.151-1.045-6.294-1.599-9.43
	c2.905-1.782,5.866-3.76,8.773-5.867c1.981-1.436,3.942-2.931,5.834-4.456c1.871-1.521,3.68-3.074,5.394-4.633
	c6.856-6.229,12.175-12.569,13.803-17.118c-5.861,2.137-13.636,1.768-21.925,0.162c-6.6-1.293-13.421-3.393-19.635-5.787
	c-4.111-17.622-8.567-33.96-12.705-47.674c-3.869-12.705-7.333-23.22-9.939-30.516c-1.276-3.658-2.279-6.531-2.962-8.491
	c-0.728-1.943-1.116-2.98-1.116-2.98c5.689-14.141,13.829-23.261,29.49-32.232c-6.299-3.113-13.842-5.818-21.712-7.404
	c-7.962-1.554-16.244-1.99-23.953-0.762c0,0-0.532-1.229-1.528-3.535c-0.499-1.152-1.114-2.574-1.837-4.245
	c-0.762-1.654-1.638-3.554-2.619-5.683c-0.982-2.128-2.069-4.485-3.252-7.05c-0.592-1.282-1.209-2.617-1.848-4.002
	c-0.672-1.369-1.368-2.788-2.086-4.253c-2.883-5.858-6.063-12.505-9.842-19.598c-14.68-28.587-36.73-65.476-62.151-99.999
	c-8.658-11.789-17.683-23.298-26.727-34.241c2.115-4.281,3.815-8.851,5.103-13.504c2.135-7.784,3.045-15.705,3.077-22.733
	c-7.541,5.029-14.198,8.296-20.921,10.196c-2.733,0.775-5.471,1.306-8.265,1.636c-10.206-11.385-20.079-21.727-29.086-30.58
	c-2.857-2.825-5.595-5.533-8.199-8.108c-2.664-2.513-5.191-4.897-7.566-7.137c-2.385-2.23-4.577-4.359-6.676-6.251
	c-2.101-1.889-4.031-3.624-5.774-5.191c-3.499-3.12-6.201-5.624-8.121-7.243c-1.907-1.634-2.925-2.505-2.925-2.505
	c0.487-7.965,1.804-16.979,4.073-25.091c2.228-8.052,5.445-15.228,9.971-19.484c-4.786-0.599-12.828,1.293-21.462,4.608
	c-8.696,3.374-18,8.199-25.442,13.135c0,0-1.803-1.398-4.958-3.844c-3.188-2.403-7.795-5.765-13.298-9.833
	c-2.729-2.065-5.815-4.124-9.011-6.395c-3.224-2.23-6.568-4.666-10.132-7.031c-3.562-2.368-7.243-4.816-10.983-7.303
	c-0.937-0.619-1.877-1.241-2.82-1.865c-0.957-0.603-1.916-1.208-2.877-1.814c-1.922-1.212-3.852-2.428-5.782-3.645
	c-1.93-1.216-3.86-2.432-5.783-3.643c-1.924-1.21-3.888-2.337-5.81-3.498c-3.859-2.298-7.657-4.56-11.332-6.749
	c-3.726-2.101-7.328-4.131-10.744-6.057c-1.708-0.962-3.37-1.899-4.977-2.804c-1.628-0.868-3.201-1.706-4.711-2.511
	c-3.022-1.606-5.792-3.079-8.247-4.384c-1.228-0.652-2.377-1.263-3.439-1.827c-1.075-0.541-2.062-1.037-2.954-1.486
	c-3.571-1.787-5.611-2.808-5.611-2.808s-2.516-1.258-6.29-3.146c-2.115-1.064-4.664-2.264-7.386-3.536
	c0.353-3.166,0.625-6.389,0.922-9.618c0.706-7.61,1.579-15.239,4.329-22.07c-4.006,1.703-8.359,3.923-12.85,6.19
	c-4.499,2.283-9.169,4.682-13.91,6.938c-2.365,1.114-4.763,2.229-7.18,3.302c-0.131,0.057-0.262,0.109-0.392,0.166
	c-2.056-3.127-3.913-6.481-5.585-10.061c-2.199-4.64-4.092-9.658-5.891-14.583c-3.594-9.846-6.575-19.966-9.852-28.136
	c-2.834,6.796-7.568,12.848-12.406,18.769c-4.845,5.919-9.797,11.707-13.246,17.908c0,0-1.044-0.368-3.001-1.059
	c-1.948-0.716-4.842-1.66-8.529-2.85c-3.687-1.188-8.151-2.673-13.297-4.294c-5.172-1.537-11.006-3.272-17.372-5.164
	c-6.415-1.714-13.341-3.661-20.713-5.54c-3.696-0.899-7.493-1.822-11.374-2.766c-1.942-0.465-3.899-0.962-5.886-1.415
	c-1.992-0.432-4.002-0.867-6.03-1.307c-4.055-0.878-8.179-1.77-12.352-2.673c-4.195-0.798-8.441-1.606-12.72-2.421
	c-2.14-0.407-4.288-0.815-6.443-1.224c-2.164-0.356-4.335-0.712-6.509-1.07c-4.35-0.711-8.717-1.426-13.084-2.14
	c-4.383-0.606-8.767-1.212-13.133-1.816c-2.184-0.298-4.363-0.594-6.536-0.891c-1.893-0.213-3.779-0.426-5.661-0.638
	c-1.534-4.708-3.323-9.392-5.264-13.71c-0.955-2.126-1.944-4.168-2.952-6.07c-1.01-1.879-2.038-3.628-3.066-5.206
	c-2.057-3.155-4.116-5.624-6.03-7.08c0.236,6.204-2.509,13.585-6.575,20.902c-1.557,2.808-3.309,5.578-5.17,8.301
	c-1.137-0.099-2.281-0.198-3.406-0.295c-2.034-0.127-4.049-0.252-6.042-0.376c-3.987-0.245-7.887-0.484-11.684-0.717
	c-7.599-0.356-14.791-0.573-21.426-0.805c-6.64-0.073-12.727-0.139-18.122-0.198c-5.395,0.071-10.099,0.134-13.972,0.185
	c-1.937,0.028-3.666,0.053-5.17,0.075c-1.503,0.055-2.782,0.101-3.819,0.139c-2.074,0.081-3.18,0.125-3.18,0.125
	c-5.832-4.919-10.293-10.042-13.743-16.118c-3.449-6.025-5.893-13.069-7.729-21.936c-4.918,5.027-9.842,11.259-13.788,18.342
	c-3.953,7.08-6.943,14.801-8.17,22.507c0,0-1.334,0.12-3.836,0.344c-2.506,0.187-6.162,0.645-10.821,1.172
	c-4.656,0.554-10.324,1.114-16.783,2.083c-3.234,0.453-6.675,0.936-10.303,1.444c-3.63,0.496-7.419,1.197-11.387,1.831
	c-1.982,0.328-4.006,0.663-6.069,1.005c-1.031,0.171-2.072,0.345-3.122,0.519c-1.046,0.2-2.101,0.401-3.165,0.604
	c-4.256,0.813-8.656,1.653-13.179,2.517c-4.519,0.883-9.13,1.949-13.859,2.953c-2.361,0.523-4.757,1.007-7.157,1.577
	c-2.398,0.581-4.819,1.168-7.26,1.76c-19.528,4.721-40.202,10.459-60.524,17.275c-19.242,6.396-38.195,13.593-55.837,21.012
	c-2.895-2.61-6.03-5.013-9.301-7.174c-6.751-4.448-14.001-7.744-20.679-9.944c2.451,8.721,3.511,16.08,3.23,23.039
	c-0.079,2.103-0.294,4.166-0.616,6.216c-9.104,4.28-17.606,8.507-25.35,12.471c-3.564,1.856-6.979,3.635-10.227,5.327
	c-3.24,1.707-6.258,3.429-9.124,4.992c-2.858,1.577-5.533,3.054-8.007,4.419c-2.441,1.422-4.684,2.727-6.709,3.907
	c-4.048,2.364-7.228,4.221-9.397,5.487c-2.139,1.316-3.279,2.018-3.279,2.018c-7.425-2.908-15.588-6.923-22.607-11.579
	c-7.003-4.643-12.815-9.875-15.48-15.503c-2.038,4.374-2.706,12.613-2.205,21.855c0.505,9.267,2.26,19.646,4.659,28.238
	c0,0-1.883,1.287-5.177,3.54c-3.295,2.252-7.886,5.637-13.452,9.615c-2.799,1.969-5.736,4.23-8.865,6.591
	c-3.118,2.376-6.444,4.831-9.814,7.464c-3.349,2.66-6.809,5.408-10.326,8.2c-0.879,0.698-1.761,1.399-2.646,2.103
	c-0.87,0.722-1.742,1.447-2.616,2.172c-1.745,1.455-3.497,2.915-5.248,4.376c-1.752,1.461-3.503,2.922-5.248,4.377
	c-1.754,1.444-3.425,2.971-5.125,4.439c-3.377,2.959-6.701,5.871-9.918,8.689c-3.15,2.892-6.195,5.688-9.083,8.34
	c-1.443,1.326-2.847,2.616-4.205,3.864c-1.328,1.279-2.612,2.515-3.844,3.702c-4.909,4.766-9.081,8.656-11.847,11.535
	c-2.808,2.837-4.412,4.459-4.412,4.459s-1.978,1.999-4.945,4.999c-2.94,3.025-6.768,7.148-10.637,11.231
	c-0.964,1.023-1.929,2.047-2.878,3.055c-0.46,0.512-0.901,1.002-1.352,1.504c-4.05-1.999-8.351-3.781-12.643-5.624
	c-7.018-3.02-14.002-6.205-19.65-10.929c0.389,4.339,1.137,9.142,1.919,14.123c0.784,4.984,1.627,10.166,2.31,15.372
	c0.107,0.853,0.212,1.714,0.317,2.574c-1.818,0.186-3.649,0.346-5.5,0.459c-2.636,0.159-5.236,0.304-7.871,0.381
	c-5.253,0.167-10.509,0.174-15.559,0.206c-2.525,0.016-4.998,0.038-7.393,0.089c-2.368,0.072-4.659,0.173-6.844,0.323
	c5.577,4.806,9.85,11.179,13.966,17.612c4.111,6.438,8.064,12.936,12.882,18.14c0,0-0.674,0.878-1.938,2.523
	c-1.232,1.67-3.039,4.119-5.338,7.237c-2.287,3.126-5.137,6.871-8.192,11.319c-1.548,2.21-3.195,4.561-4.932,7.039
	c-0.868,1.24-1.758,2.511-2.67,3.812c-0.88,1.323-1.781,2.676-2.7,4.059c-14.835,22.023-33.346,52.308-49.037,84.08
	c-5.282,10.432-10.24,21.008-14.837,31.405c-3.048-0.208-6.201-0.326-9.388-0.327c-4.89-0.002-9.859,0.234-14.44,0.753
	c-9.203,1.016-17.227,3.023-21.213,5.751c5.992,1.711,12.089,6.586,17.828,12.744c4.639,4.983,8.975,10.77,12.628,16.423
	c-3.126,8.13-5.947,15.855-8.406,22.935c-2.276,6.24-4.049,12.066-5.743,17.189c-0.827,2.568-1.628,4.963-2.319,7.192
	c-0.666,2.238-1.277,4.293-1.829,6.149c-2.206,7.427-3.467,11.67-3.467,11.67c-12.862,8.113-24.768,10.72-42.806,8.753
	c3.293,6.224,7.836,12.85,13.296,18.763c5.423,5.91,11.905,11.138,18.884,14.679c0,0-1.13,5.236-3.107,14.399
	c-0.876,4.604-1.939,10.195-3.159,16.608c-0.638,3.202-1.123,6.642-1.74,10.251c-0.592,3.613-1.214,7.412-1.863,11.375
	c-0.55,3.979-1.123,8.123-1.716,12.413c-0.296,2.145-0.597,4.326-0.903,6.541c-0.254,2.222-0.511,4.477-0.772,6.764
	c-0.503,4.575-1.068,9.27-1.555,14.079c-0.419,4.815-0.846,9.735-1.281,14.738c-0.217,2.815-0.417,5.663-0.607,8.528
	c-0.24,2.862-0.468,5.708-0.673,8.523c-0.317,5.012-0.63,9.94-0.935,14.764c-0.237,4.827-0.379,9.554-0.565,14.153
	c-0.084,2.3-0.166,4.568-0.247,6.803c-0.029,2.236-0.057,4.437-0.085,6.602c-0.054,4.33-0.107,8.514-0.157,12.53
	c0.05,4.016,0.097,7.865,0.143,11.526c0.071,3.66,0.036,7.134,0.189,10.395c0.248,6.523,0.464,12.21,0.642,16.893
	c0.586,9.356,0.921,14.702,0.921,14.702c-7.429,2.459-14.62,6.659-20.865,11.693c-6.282,5.031-11.764,10.904-15.949,16.566
	c18.13,0.749,29.513,5.106,41.018,15.049c0,0,0.612,4.384,1.684,12.057c0.269,1.918,0.566,4.042,0.89,6.354
	c0.351,2.308,0.785,4.796,1.219,7.458c0.91,5.318,1.793,11.343,3.111,17.854c1.374,7.368,3.009,15.427,4.885,23.934
	c-4.456,5.044-9.608,10.117-14.939,14.352c-6.595,5.231-13.352,9.141-19.532,9.937c3.534,3.292,11.168,6.476,20.116,8.855
	c4.453,1.199,9.331,2.173,14.166,2.902c3.152,0.475,6.287,0.83,9.332,1.079c2.992,10.967,6.315,22.166,9.979,33.269
	c10.769,33.76,24.547,66.47,35.926,90.462c0.703,1.504,1.391,2.977,2.064,4.417c0.707,1.423,1.397,2.813,2.07,4.168
	c1.347,2.71,2.624,5.281,3.825,7.697c2.356,4.855,4.614,8.983,6.409,12.416c1.808,3.426,3.229,6.118,4.197,7.953
	c1.004,1.816,1.539,2.784,1.539,2.784c-5.541,4.426-10.42,10.26-15.447,16.012c-5.03,5.746-10.208,11.41-16.44,15.328
	c2.139,0.475,4.389,0.917,6.719,1.342c2.36,0.408,4.803,0.799,7.297,1.193c4.989,0.786,10.184,1.578,15.353,2.527
	c2.593,0.47,5.143,1.002,7.725,1.553c1.813,0.389,3.6,0.821,5.369,1.276c-0.232,0.834-0.464,1.67-0.698,2.497
	c-1.453,5.045-3.061,10.044-4.581,14.855c-1.517,4.808-2.974,9.446-4.007,13.678c6.29-3.827,13.672-5.933,21.062-7.871
	c4.519-1.18,9.039-2.301,13.341-3.672c0.371,0.564,0.733,1.114,1.112,1.689c0.788,1.138,1.589,2.294,2.39,3.45
	c3.215,4.615,6.384,9.264,8.839,12.694c2.486,3.409,4.143,5.681,4.143,5.681s1.344,1.843,3.696,5.068
	c2.305,3.26,5.849,7.73,9.991,13.176c1.041,1.357,2.126,2.771,3.248,4.235c1.156,1.437,2.352,2.922,3.58,4.449
	c2.459,3.053,5.052,6.272,7.735,9.603c2.759,3.267,5.611,6.643,8.508,10.073c1.461,1.704,2.886,3.464,4.404,5.155
	c1.508,1.699,3.021,3.406,4.535,5.112c1.514,1.706,3.028,3.412,4.536,5.111c0.756,0.848,1.51,1.695,2.262,2.538
	c0.77,0.828,1.538,1.652,2.302,2.474c3.06,3.287,6.071,6.521,8.985,9.651c2.939,3.106,5.861,6.031,8.589,8.846
	c2.742,2.802,5.308,5.477,7.781,7.841c4.909,4.766,8.943,8.798,11.864,11.517c2.921,2.72,4.59,4.274,4.59,4.274
	c-3.656,8.138-6.942,18.137-8.825,27.225c-1.876,9.063-2.446,17.31-1.085,21.939c3.476-5.167,10.004-9.471,17.623-13.016
	c7.636-3.555,16.308-6.306,24.083-8.072c0,0,1.023,0.864,2.941,2.485c1.955,1.576,4.822,3.888,8.472,6.83
	c1.827,1.469,3.849,3.095,6.05,4.865c2.242,1.719,4.666,3.578,7.257,5.565c2.6,1.974,5.327,4.127,8.276,6.299
	c2.959,2.158,6.07,4.427,9.316,6.795c7.065,5.077,14.841,10.526,23.203,16.118c0.011,2.076-0.083,4.148-0.32,6.239
	c-0.762,6.922-2.909,14.041-6.635,22.298c6.932-1.178,14.593-3.354,21.933-6.743c3.557-1.649,7.016-3.556,10.269-5.704
	c16.336,9.972,34.001,19.919,52.072,29.118c19.077,9.775,38.661,18.537,57.264,26.123c2.325,0.95,4.631,1.892,6.916,2.825
	c2.288,0.922,4.585,1.759,6.841,2.628c4.527,1.699,8.926,3.443,13.263,4.991c4.344,1.53,8.569,3.018,12.655,4.458
	c1.022,0.359,2.035,0.716,3.039,1.07c1.012,0.329,2.016,0.656,3.01,0.98c1.989,0.646,3.939,1.279,5.851,1.9
	c3.829,1.219,7.471,2.478,10.986,3.511c3.511,1.045,6.842,2.035,9.971,2.967c6.243,1.923,11.763,3.324,16.284,4.567
	c4.528,1.217,8.075,2.216,10.524,2.775c2.44,0.596,3.742,0.914,3.742,0.914c0.063,7.803,1.865,15.884,4.716,23.475
	c2.844,7.594,6.782,14.491,10.894,20.196c3.139-8.493,6.609-15.093,10.919-20.535c4.319-5.492,9.495-9.892,15.996-13.885
	c0,0,1.087,0.208,3.125,0.598c1.02,0.192,2.277,0.429,3.756,0.708c1.484,0.246,3.19,0.529,5.101,0.846
	c3.822,0.63,8.464,1.394,13.787,2.27c5.343,0.748,11.372,1.591,17.948,2.512c6.596,0.762,13.739,1.622,21.306,2.405
	c3.789,0.337,7.681,0.682,11.66,1.036c1.989,0.175,4,0.352,6.031,0.531c1.127,0.072,2.274,0.145,3.412,0.217
	c1.434,2.971,2.752,5.971,3.872,8.98c2.927,7.843,4.539,15.551,3.379,21.65c2.109-1.154,4.515-3.288,7.02-6.1
	c1.253-1.406,2.53-2.982,3.809-4.689c1.281-1.73,2.563-3.602,3.825-5.561c2.564-3.98,5.033-8.344,7.253-12.77
	c1.893,0.071,3.789,0.143,5.693,0.215c2.193,0.032,4.392,0.064,6.596,0.096c4.408,0.055,8.832,0.111,13.257,0.167
	c4.425-0.054,8.85-0.108,13.257-0.161c2.204-0.028,4.403-0.057,6.596-0.085c2.192-0.083,4.377-0.166,6.554-0.248
	c4.353-0.166,8.672-0.331,12.939-0.493c4.262-0.27,8.472-0.536,12.613-0.798c2.07-0.132,4.124-0.262,6.158-0.391
	c2.032-0.151,4.042-0.35,6.031-0.52c3.978-0.353,7.871-0.699,11.66-1.036c7.57-0.757,14.71-1.647,21.308-2.384
	c6.576-0.92,12.605-1.764,17.948-2.511c5.33-0.835,9.966-1.636,13.789-2.26c3.823-0.625,6.825-1.126,8.859-1.544
	c2.038-0.39,3.125-0.598,3.125-0.598c2.485,6.647,6.516,13.11,10.422,19.686c3.9,6.578,7.676,13.268,9.463,20.412
	c4.461-7.588,8.919-17.15,13.945-26.348c2.514-4.601,5.136-9.28,8.003-13.539c2.188-3.29,4.525-6.329,7.025-9.114
	c0.121,0.076,0.242,0.147,0.363,0.223c2.229,1.422,4.434,2.882,6.606,4.337c4.351,2.938,8.61,6.009,12.718,8.938
	c4.103,2.914,8.075,5.759,11.781,8.041c-1.698-7.165-1.422-14.839-0.983-22.469c0.189-3.238,0.401-6.465,0.525-9.648
	c2.881-0.851,5.581-1.657,7.831-2.393c4.014-1.303,6.689-2.171,6.689-2.171s2.17-0.705,5.968-1.938
	c0.948-0.31,1.999-0.654,3.142-1.028c1.135-0.4,2.362-0.831,3.673-1.293c2.623-0.924,5.582-1.966,8.809-3.103
	c1.613-0.57,3.294-1.164,5.033-1.779c1.724-0.655,3.507-1.333,5.34-2.029c3.665-1.394,7.53-2.863,11.529-4.384
	c3.961-1.615,8.054-3.284,12.213-4.98c2.074-0.86,4.184-1.682,6.267-2.59c2.082-0.911,4.172-1.825,6.262-2.739
	c2.09-0.914,4.18-1.829,6.262-2.74c1.041-0.456,2.08-0.91,3.116-1.364c1.026-0.476,2.048-0.95,3.067-1.422
	c4.07-1.9,8.074-3.77,11.95-5.58c3.877-1.807,7.547-3.715,11.068-5.439c3.5-1.768,6.858-3.343,9.865-4.977
	c6.049-3.2,11.107-5.837,14.617-7.736c3.485-1.947,5.476-3.06,5.476-3.06c6.621,5.992,15.099,12.153,23.194,16.788
	c8.043,4.567,15.711,7.64,20.533,7.763c-3.839-4.884-5.948-12.461-6.948-20.755c-1.032-8.36-0.988-17.469-0.279-25.418
	c0,0,1.136-0.709,3.266-2.04c2.14-1.314,5.187-3.386,9.112-5.949c1.958-1.289,4.125-2.716,6.485-4.27
	c2.357-1.557,4.844-3.335,7.535-5.183c2.683-1.86,5.538-3.84,8.547-5.927c2.96-2.157,6.071-4.426,9.318-6.792
	c10.225-7.405,21.534-16.164,33.322-25.893c2.715,0.744,5.346,1.678,7.934,2.854c6.364,2.882,12.457,7.108,19.162,13.207
	c1.018-6.953,1.302-14.922,0.354-22.937c-0.579-4.797-1.578-9.572-3.031-14.124c10.579-9.47,21.222-19.489,31.546-29.854
	c30.293-30.337,57.606-63.518,76.392-89.592c4.796-6.449,8.933-12.546,12.66-17.908c0.93-1.342,1.83-2.64,2.698-3.894
	c0.839-1.274,1.648-2.501,2.425-3.681c1.554-2.36,2.98-4.528,4.269-6.485c1.288-1.958,2.438-3.707,3.438-5.228
	c0.964-1.544,1.785-2.858,2.45-3.923c1.33-2.13,2.039-3.267,2.039-3.267c7.44,2.366,15.693,3.172,23.798,2.825
	c8.019-0.392,15.882-1.94,22.575-4.077c-14.145-11.21-20.831-21.444-24.344-36.276c0,0,0.539-0.967,1.549-2.78
	c0.969-1.835,2.389-4.527,4.198-7.953c3.667-6.824,8.663-16.704,14.387-28.689c6.141-12.942,12.988-28.431,19.685-45.241
	c6.502-1.438,13.56-2.496,20.279-2.789c8.436-0.349,16.179,0.447,21.655,3.436c-0.93-4.742-5.242-11.805-11.091-18.989
	c-1.462-1.797-3.019-3.603-4.641-5.386c-1.643-1.791-3.358-3.562-5.103-5.278c-2.56-2.518-5.193-4.916-7.798-7.112
	c1.016-3.018,2.019-6.044,2.99-9.085c11.116-33.647,19.187-68.212,24.059-94.315c1.316-6.511,2.221-12.532,3.121-17.852
	c0.439-2.662,0.85-5.153,1.229-7.457c0.324-2.312,0.621-4.436,0.89-6.354c1.073-7.673,1.686-12.057,1.686-12.057
	c7.096-0.324,14.448-2.182,21.889-3.883c7.435-1.695,14.943-3.237,22.287-2.746c-2.923-3.284-6.253-6.715-9.803-10.279
	C1608.93,916.351,1605.173,912.657,1601.53,908.85z M1512.216,1022.535c-8.245,2.081-17.15,2.722-27.815,1.188
	c3.255,2.398,6.552,4.92,9.83,7.403c3.276,2.482,6.595,4.942,10.001,7.234c5.974,4.018,12.21,7.528,18.952,9.665
	c-5.068,16.042-10.899,32.653-17.357,49.032c-15.41,38.824-34.416,76.14-50.572,102.965c-2.008,3.361-3.932,6.582-5.761,9.645
	c-1.903,3.019-3.708,5.882-5.404,8.573c-1.71,2.682-3.251,5.231-4.782,7.518c-1.524,2.292-2.924,4.398-4.189,6.299
	c-2.547,3.792-4.476,6.819-5.909,8.803c-1.404,2.004-2.153,3.073-2.153,3.073c-4.603-0.734-9.93-1.371-15.496-1.846
	c-2.783-0.237-5.626-0.434-8.471-0.579c-2.874-0.166-5.755-0.285-8.578-0.339c-5.648-0.108-11.072,0.035-15.828,0.556
	c-1.189,0.13-2.335,0.286-3.437,0.464c-1.116,0.167-2.183,0.361-3.196,0.583c-2.025,0.444-3.828,1.003-5.359,1.695
	c7.146,6.865,12.727,12.861,17.567,19.066c2.42,3.103,4.653,6.26,6.8,9.609c2.154,3.356,4.205,6.892,6.229,10.737
	c0,0-3.203,3.93-8.809,10.808c-2.833,3.414-6.375,7.474-10.381,12.179c-1.982,2.371-4.215,4.786-6.524,7.37
	c-2.317,2.578-4.753,5.289-7.295,8.117c-1.269,1.361-2.57,2.747-3.897,4.155c-4.94-1.963-9.526-4.11-14.058-6.58
	c-6.912-3.77-13.737-8.305-21.672-14.242c-0.885,3.232-1.02,7.502-0.755,12.29c0.254,4.776,0.989,10.149,2.009,15.701
	c1.427,7.583,3.254,15.396,5.209,22.412c-1.119,1.071-2.232,2.141-3.372,3.216c-13.864,13.015-29.151,26.365-44.984,39.043
	c-31.57,25.507-65.657,47.712-92.022,62.868c-1.643,0.958-3.251,1.896-4.823,2.813c-1.594,0.879-3.15,1.737-4.668,2.574
	c-3.035,1.674-5.914,3.263-8.619,4.755c-2.689,1.524-5.289,2.793-7.65,4.048c-2.371,1.235-4.55,2.37-6.517,3.395
	c-3.917,2.086-7.077,3.561-9.203,4.622c-2.134,1.047-3.272,1.605-3.272,1.605c-3.246-7.423-8.292-13.827-13.932-19.786
	c-2.824-2.985-5.788-5.831-8.789-8.679c-3.004-2.854-6.024-5.661-8.929-8.48c3.272,10.27,4.11,19.165,3.42,27.65
	c-0.172,2.121-0.439,4.216-0.786,6.299c-0.358,2.058-0.799,4.102-1.304,6.148c-1.011,4.093-2.286,8.195-3.708,12.425
	c0,0-0.626,0.271-1.801,0.779c-1.179,0.496-2.884,1.284-5.108,2.157c-2.214,0.894-4.904,1.981-7.988,3.227
	c-3.088,1.238-6.549,2.692-10.396,4.094c-15.252,5.969-35.929,13.048-56.888,19.168c-20.955,6.149-42.22,11.163-58.256,14.48
	c-8.042,1.537-14.738,2.856-19.441,3.685c-4.712,0.779-7.405,1.225-7.405,1.225s-1.287,0.213-3.701,0.613
	c-1.207,0.2-2.696,0.446-4.446,0.736c-1.751,0.283-3.775,0.539-6.035,0.864c-9.039,1.309-21.977,3.049-37.574,4.455
	c-7.687,0.766-16.027,1.396-24.852,1.888c-1.912-2.355-3.698-4.789-5.328-7.368c-2.256-3.55-4.228-7.46-5.86-11.771
	c-1.633-4.313-2.927-9.049-3.841-14.366c-2.563,7.654-5.564,15.475-7.831,23.403c-1.05,3.69-1.929,7.392-2.53,11.107
	c-1.051,0.026-2.105,0.051-3.164,0.074c-2.447,0.035-4.914,0.07-7.399,0.105c-2.485,0.027-4.988,0.102-7.506,0.046
	c-5.036-0.055-10.134-0.111-15.273-0.167c-5.136-0.18-10.312-0.361-15.509-0.543l-3.901-0.145l-3.902-0.24
	c-2.603-0.16-5.208-0.32-7.814-0.481c-20.836-1.38-41.621-3.585-60.99-6.479c-4.844-0.705-9.585-1.549-14.238-2.291
	c-2.323-0.39-4.628-0.739-6.893-1.149c-2.262-0.43-4.496-0.856-6.7-1.275c-4.404-0.859-8.706-1.607-12.835-2.488
	c-4.126-0.894-8.113-1.757-11.94-2.586c-1.911-0.427-3.794-0.792-5.612-1.243c-1.821-0.443-3.599-0.875-5.333-1.297
	c-3.468-0.843-6.757-1.643-9.849-2.394c-6.166-1.567-11.504-3.08-15.919-4.25c-4.423-1.147-7.84-2.25-10.191-2.927
	c-2.346-0.697-3.596-1.069-3.596-1.069c-0.737-4.592-1.792-9.837-3.076-15.258c-1.272-5.465-2.754-11.159-4.414-16.537
	c-1.656-5.394-3.495-10.456-5.459-14.841c-1.952-4.425-4.056-8.096-6.327-10.561c-4.304,8.93-8.27,16.105-12.666,22.643
	c-4.407,6.559-9.214,12.406-15.273,18.671c0,0-4.734-1.814-13.019-4.988c-4.104-1.684-9.088-3.728-14.804-6.073
	c-2.853-1.186-5.844-2.551-9.022-3.933c-1.006-0.448-2.036-0.899-3.078-1.354c0.367-3.691,0.875-7.28,1.554-10.898
	c1.454-7.74,3.662-15.632,6.862-25.013c-3.347,0.161-7.434,1.325-11.92,3.087c-4.46,1.712-9.341,4.065-14.305,6.745
	c-5.587,3.046-11.248,6.413-16.47,9.76c-6.191-3.14-12.572-6.476-19.076-10.011c-16.66-9.159-34.081-19.566-51.026-30.708
	l-6.331-4.209c-2.109-1.403-4.227-2.787-6.28-4.258c-4.136-2.899-8.255-5.786-12.342-8.65c-4.017-2.963-8.001-5.901-11.938-8.805
	c-1.984-1.432-3.895-2.935-5.802-4.415c-1.907-1.479-3.801-2.948-5.679-4.405c-14.949-11.745-28.548-23.167-39.768-33.439
	c-11.311-10.172-20.377-19.039-26.656-25.307c-1.574-1.563-2.98-2.958-4.203-4.172c-1.195-1.241-2.212-2.297-3.037-3.153
	c-1.649-1.712-2.529-2.625-2.529-2.625c6.065-5.371,10.609-12.144,14.549-19.347c3.93-7.202,7.258-14.838,10.864-22.125
	c-17.486,12.521-32.944,14.175-50.701,13.881c0,0-1.794-2.057-4.934-5.658c-1.53-1.835-3.387-4.062-5.518-6.618
	c-1.066-1.277-2.199-2.637-3.394-4.07c-0.598-0.717-1.211-1.452-1.838-2.204c-0.61-0.766-1.235-1.551-1.873-2.351
	c-10.339-12.704-23.485-30.165-35.768-48.223c-12.322-18.035-23.664-36.714-31.786-50.936c-3.941-7.179-7.298-13.122-9.519-17.351
	c-2.207-4.237-3.467-6.658-3.467-6.658s-0.603-1.158-1.734-3.328c-0.564-1.086-1.26-2.425-2.078-3.999
	c-0.781-1.593-1.68-3.424-2.686-5.474c-1.006-2.05-2.12-4.32-3.333-6.792c-0.601-1.238-1.25-2.516-1.881-3.861
	c-0.622-1.35-1.267-2.748-1.933-4.192c-1.333-2.889-2.751-5.963-4.245-9.203c-0.763-1.613-1.493-3.292-2.23-5.014
	c-0.744-1.72-1.504-3.479-2.281-5.276c-0.803-1.826-1.612-3.697-2.427-5.608c6.906-12.858,15.412-23.588,31.588-32.105
	c-4.044-0.028-8.188-0.135-12.306-0.216c-4.109-0.084-8.24-0.125-12.342,0.021c-6.379,0.229-12.686,0.914-18.714,2.618
	c-8.273-22.344-16.389-47.579-22.966-73.247c-10.341-40.47-16.876-81.835-19.563-113.034c-0.35-3.899-0.685-7.636-1.004-11.19
	c-0.232-3.561-0.452-6.938-0.659-10.112c-0.2-3.175-0.388-6.146-0.561-8.893c-0.108-2.751-0.207-5.277-0.297-7.559
	c-0.176-4.564-0.314-8.15-0.408-10.595c-0.035-2.447-0.053-3.752-0.053-3.752c4.162-2.11,8.853-4.724,13.644-7.609
	c4.814-2.887,9.625-6.043,14.31-9.273c4.645-3.231,8.963-6.533,12.518-9.749c1.777-1.608,3.364-3.196,4.706-4.746
	c1.374-1.549,2.521-3.061,3.357-4.521c-19.62-2.732-32.135-6.245-47.914-13.919c0,0,0.029-1.268,0.19-3.639
	c0.146-2.372,0.36-5.852,0.632-10.281c0.022-0.32,0.041-0.655,0.062-0.984c0.029-0.327,0.06-0.661,0.086-0.979
	c0.392-4.42,0.701-7.892,0.911-10.26c0.194-2.369,0.356-3.627,0.356-3.627c16.749-5.231,29.649-6.835,49.456-6.605
	c-0.609-1.568-1.517-3.234-2.644-4.972c-1.095-1.733-2.427-3.54-3.944-5.395c-3.034-3.711-6.81-7.621-10.921-11.51
	c-4.15-3.893-8.436-7.733-12.765-11.306c-4.306-3.569-8.554-6.854-12.354-9.562c0,0,0.213-1.288,0.613-3.702
	c0.458-2.404,1.131-5.929,1.986-10.415c0.429-2.243,0.905-4.726,1.423-7.43c0.582-2.69,1.211-5.6,1.883-8.709
	c0.679-3.108,1.401-6.414,2.162-9.9c0.846-3.466,1.736-7.111,2.664-10.914c7.318-30.448,19.958-70.372,36.229-108.843
	c10.338-24.397,22.133-48.136,33.651-68.994c5.705,2.586,11.839,4.206,18.112,5.385c4.034,0.757,8.126,1.334,12.2,1.864
	c4.084,0.535,8.197,1.048,12.2,1.625c-14.723-10.838-21.53-22.718-26.438-36.464c1.091-1.768,2.17-3.497,3.237-5.182
	c1.037-1.661,2.051-3.287,3.044-4.876c0.986-1.593,1.958-3.144,2.954-4.625c1.962-2.981,3.823-5.808,5.573-8.466
	c0.874-1.329,1.721-2.615,2.538-3.856c0.825-1.236,1.657-2.403,2.437-3.537c1.568-2.263,3.009-4.341,4.311-6.218
	c1.301-1.877,2.463-3.553,3.473-5.012c1.044-1.434,1.932-2.655,2.652-3.644c1.442-1.977,2.211-3.032,2.211-3.032
	s1.608-2.206,4.423-6.065c2.829-3.849,7.036-9.225,12.005-15.734c10.155-12.849,24.161-29.624,39.039-45.616
	c14.843-16.02,30.45-31.321,42.571-42.338c0.75-0.697,1.485-1.379,2.203-2.045c0.733-0.65,1.449-1.285,2.147-1.905
	c1.396-1.238,2.72-2.413,3.964-3.517c2.488-2.208,4.658-4.134,6.444-5.719c3.642-3.091,5.723-4.858,5.723-4.858
	c17.601,2.362,32.639,6.307,48.058,21.3c-2.477-7.744-4.627-15.791-7.437-23.5c-2.82-7.711-6.301-15.087-11.495-21.304
	c0,0,1.006-0.771,2.892-2.218c0.943-0.723,2.106-1.615,3.474-2.664c1.391-1.018,2.989-2.187,4.779-3.498
	c7.145-5.26,17.434-12.673,30.138-21.041c12.629-8.48,27.782-17.742,44.317-27.122c2.075-1.16,4.166-2.329,6.273-3.507
	c2.107-1.178,4.221-2.38,6.396-3.499c4.326-2.283,8.706-4.594,13.12-6.923c4.469-2.222,8.973-4.461,13.496-6.709
	c2.25-1.148,4.551-2.2,6.846-3.272l6.889-3.216c18.42-8.485,37.199-16.173,55.041-22.74c6.959-2.524,13.766-4.869,20.357-7.049
	c4.663,4.089,9.758,8.264,14.827,12.111c4.508,3.391,8.982,6.448,13.136,8.806c4.172,2.412,8.04,4.174,11.325,4.833
	c-1.762-9.754-2.767-17.887-3.048-25.757c-0.131-3.679-0.097-7.303,0.092-11.008c1.097-0.294,2.184-0.587,3.245-0.879
	c3.349-0.892,6.511-1.795,9.509-2.541c6.003-1.465,11.236-2.742,15.545-3.794c8.666-1.901,13.618-2.987,13.618-2.987
	c5.056,7.1,8.935,13.599,12.313,20.743c3.37,7.121,6.22,14.808,9.142,24.281c2.614-2.098,5.243-5.414,7.834-9.497
	c2.597-4.043,5.172-8.772,7.615-13.859c2.444-5.07,4.761-10.479,6.835-15.692c2.08-5.168,3.907-10.198,5.321-14.628
	c0,0,1.292-0.181,3.716-0.52c2.426-0.318,5.97-0.898,10.514-1.371c4.541-0.497,10.045-1.196,16.376-1.824
	c3.169-0.281,6.541-0.581,10.096-0.896c1.778-0.158,3.601-0.32,5.467-0.486c1.866-0.174,3.782-0.255,5.735-0.391
	c3.908-0.248,7.979-0.506,12.192-0.773c4.214-0.253,8.579-0.351,13.062-0.542c2.242-0.085,4.514-0.172,6.815-0.26
	c2.301-0.067,4.632-0.068,6.988-0.107c4.712-0.039,9.525-0.165,14.42-0.139c19.584,0.033,40.465,0.957,61.273,2.705
	c2.6,0.231,5.2,0.462,7.798,0.692l3.894,0.345l3.879,0.439c5.166,0.596,10.311,1.19,15.416,1.78
	c5.089,0.712,10.138,1.419,15.126,2.117c2.499,0.32,4.962,0.768,7.415,1.166c2.452,0.406,4.886,0.81,7.3,1.21
	c1.044,0.181,2.082,0.363,3.118,0.546c0.039,3.763,0.355,7.555,0.842,11.36c1.057,8.178,2.857,16.36,4.247,24.311
	c1.699-5.121,3.686-9.611,5.945-13.631c2.258-4.018,4.792-7.59,7.553-10.763c1.997-2.306,4.126-4.446,6.369-6.49
	c8.652,1.805,16.805,3.673,24.291,5.579c15.212,3.721,27.745,7.374,36.487,10.018c2.187,0.659,4.149,1.214,5.838,1.756
	c1.687,0.548,3.122,1.014,4.286,1.392c2.327,0.756,3.568,1.159,3.568,1.159s2.596,0.843,7.139,2.317
	c4.527,1.522,10.95,3.827,18.672,6.548c15.36,5.675,35.638,13.81,55.439,23.021c19.81,9.182,39.197,19.271,53.386,27.451
	c3.594,1.962,6.8,3.917,9.668,5.602c2.864,1.693,5.36,3.169,7.417,4.384c2.068,1.196,3.636,2.229,4.728,2.896
	c1.085,0.678,1.664,1.039,1.664,1.039c0.774,4.395,1.422,8.641,1.81,12.839c0.194,2.099,0.324,4.185,0.371,6.274
	c0.032,2.112-0.017,4.223-0.164,6.346c-0.585,8.492-2.743,17.163-7.512,26.829c3.293-2.353,6.698-4.678,10.095-7.051
	c3.393-2.367,6.748-4.739,9.987-7.269c6.467-5.05,12.413-10.628,16.732-17.483c0,0,1.042,0.722,2.995,2.076
	c1.944,1.367,4.849,3.298,8.409,5.946c1.792,1.307,3.777,2.755,5.937,4.33c2.147,1.594,4.529,3.237,6.959,5.146
	c2.452,1.88,5.062,3.881,7.812,5.99c1.376,1.054,2.786,2.136,4.231,3.243c1.417,1.141,2.868,2.309,4.349,3.502
	c23.805,18.924,54.193,45.973,81.598,75.91c13.761,14.901,26.883,30.386,38.646,45.325c0.966,1.234,1.907,2.458,2.853,3.684
	c-2.981,6.644-5.955,14.097-8.499,21.382c-1.838,5.338-3.368,10.541-4.333,15.225c-0.977,4.695-1.483,8.937-1.09,12.265
	c8.733-4.685,16.159-8.149,23.557-10.844c4.85-1.765,9.705-3.203,14.883-4.406c1.102,1.59,2.18,3.156,3.232,4.691
	c2.091,3.177,4.094,6.221,6,9.116c1.897,2.901,3.744,5.622,5.35,8.262c3.258,5.25,6.155,9.794,8.445,13.593
	c4.516,7.638,7.096,12.003,7.096,12.003c-2.575,3.5-5.132,6.69-7.763,9.686c-2.623,2.991-5.303,5.779-8.159,8.486
	c-5.713,5.413-12.127,10.508-20.218,16.228c1.409,0.913,3.109,1.735,5.045,2.477c0.968,0.371,1.994,0.722,3.073,1.054
	c1.063,0.341,2.172,0.666,3.329,0.972c4.625,1.226,9.966,2.177,15.567,2.915c2.799,0.368,5.665,0.681,8.532,0.946
	c2.834,0.281,5.675,0.512,8.462,0.693c5.575,0.362,10.937,0.528,15.598,0.489c0,0,0.581,1.169,1.67,3.36
	c1.121,2.176,2.576,5.458,4.528,9.587c0.966,2.069,2.036,4.36,3.201,6.854c1.173,2.491,2.315,5.241,3.605,8.148
	c1.275,2.914,2.632,6.015,4.062,9.284c1.352,3.302,2.773,6.774,4.256,10.398c11.968,28.938,25.185,68.675,34.623,109.365
	c3.939,17.16,7.223,34.456,9.837,51.075c-6.986,1.106-13.676,3.645-20.184,6.726c-3.71,1.758-7.359,3.694-10.969,5.659
	c-3.612,1.965-7.249,3.967-10.825,5.852c10.775,0.077,19.484,2.041,27.325,5.33c6.951,2.891,13.064,6.818,19.299,11.355
	c0.087,0.758,0.175,1.533,0.261,2.285c0.279,2.226,0.455,4.432,0.649,6.603c0.193,2.171,0.382,4.309,0.569,6.411
	c0.368,4.205,0.772,8.265,0.975,12.176c0.483,7.817,1.015,14.977,1.178,21.341c0.222,6.36,0.516,11.901,0.511,16.472
	c0.116,9.138,0.182,14.359,0.182,14.359s-0.035,2.73-0.096,7.508c-0.07,4.778-0.075,11.606-0.463,19.788
	c-0.078,2.046-0.158,4.178-0.242,6.384c-0.079,2.206-0.158,4.487-0.331,6.828c-0.161,2.548-0.328,5.176-0.498,7.861
	c-0.233,2.68-0.461,5.304-0.682,7.848c-0.179,2.34-0.442,4.607-0.693,6.8c-0.247,2.194-0.485,4.313-0.714,6.348
	c-0.838,8.149-1.854,14.901-2.498,19.635c-0.654,4.733-1.027,7.438-1.027,7.438s-0.846,5.153-2.325,14.171
	c-0.678,4.52-1.797,9.955-2.966,16.211c-1.112,6.268-2.707,13.268-4.353,20.925c-0.785,3.837-1.791,7.791-2.783,11.894
	c-0.499,2.051-1.006,4.137-1.521,6.255c-0.516,2.118-1.02,4.273-1.628,6.432c-0.197,0.73-0.401,1.483-0.6,2.22
	C1526.153,1017.745,1519.521,1020.715,1512.216,1022.535z"/>
</svg>
